<?xml version="1.0" encoding="utf-8"?>
<!-- Generator: Adobe Illustrator 25.0.1, SVG Export Plug-In . SVG Version: 6.00 Build 0)  -->
<svg version="1.1" id="Layer_1" xmlns="http://www.w3.org/2000/svg" xmlns:xlink="http://www.w3.org/1999/xlink" x="0px" y="0px"
	 viewBox="0 0 143 32" style="enable-background:new 0 0 143 32;" xml:space="preserve">
<style type="text/css">
	.st0{fill:#2B2B2B;}
	.st1{fill:#C5FFAD;}
	.st2{fill:#FFD393;}
</style>
<g>
	<path class="st0" d="M54.3,9.4l-1.6,13.3h-3.1l1.6-13.3h-3.6l0.3-2.7h10.3l-0.3,2.7H54.3z"/>
	<path class="st0" d="M62,12.4l-1.3,10.4h-2.9l1.3-10.4H62z M59.9,6.8c0.5-0.5,1-0.6,1.4-0.6c0.5,0,0.8,0.2,1.1,0.4
		c0.3,0.3,0.5,0.7,0.5,1.1c0,0.4-0.1,0.9-0.6,1.3c-0.4,0.4-0.9,0.6-1.4,0.6s-0.8-0.2-1.1-0.4c-0.3-0.3-0.5-0.6-0.5-1.1
		C59.3,7.7,59.5,7.2,59.9,6.8z"/>
	<path class="st0" d="M72.3,15.5c-0.4-0.4-1.2-0.9-2.5-0.9c-0.7,0-1.5,0.1-2.2,0.8c-0.6,0.6-1,1.6-1,2.4c0,0.7,0.3,1.4,0.7,1.9
		c0.5,0.5,1.2,0.8,2,0.8c0.6,0,1.6-0.2,2.4-0.9l-0.3,2.9c-1,0.6-2,0.6-2.7,0.6c-1.5,0-2.9-0.5-3.8-1.5c-0.7-0.8-1.3-1.9-1.3-3.5
		c0-1.8,0.6-3.3,1.7-4.4c1.2-1.3,2.7-1.7,4.5-1.7c0.9,0,1.8,0.1,2.9,0.6L72.3,15.5z"/>
	<path class="st0" d="M78.7,5.3L77.4,16l4.3-3.6h3.6L79.7,17l4.5,5.8h-3.5l-3-4.3L77,19l-0.5,3.7h-2.9l2.2-17.5H78.7z"/>
	<path class="st0" d="M96,20c-0.5,1.1-1.4,1.9-2.2,2.4c-1,0.6-2.2,0.7-3.1,0.7c-1.4,0-2.8-0.3-3.9-1.4c-0.6-0.6-1.2-1.7-1.2-3.4
		c0-1.8,0.6-3.6,1.8-4.7c1.3-1.3,2.9-1.5,4.2-1.5c1.2,0,2.5,0.2,3.6,1.2c1.1,1.1,1.3,2.5,1.3,3.8c0,0.4,0,0.7,0,1.1h-7.8
		c-0.1,1,0.2,1.7,0.6,2.1c0.5,0.6,1.2,0.6,1.7,0.6c0.4,0,1,0,1.6-0.3c0.4-0.3,0.8-0.7,1-1.1L96,20z M93.8,16.2
		c0-0.6-0.3-1.2-0.6-1.5c-0.4-0.4-1-0.6-1.6-0.6c-0.8,0-1.4,0.3-1.8,0.7c-0.4,0.3-0.7,0.8-0.9,1.4H93.8z"/>
	<path class="st0" d="M101.9,14.9l-1,7.9H98l1-7.9h-1.2l0.3-2.5h1.2l0.4-3.6h2.9l-0.4,3.6h2l-0.3,2.5H101.9z"/>
	<path class="st0" d="M108.7,12.4l-1.3,10.4h-2.9l1.3-10.4H108.7z M106.6,6.8c0.5-0.5,1-0.6,1.4-0.6c0.5,0,0.8,0.2,1.1,0.4
		c0.3,0.3,0.5,0.7,0.5,1.1c0,0.4-0.1,0.9-0.6,1.3c-0.4,0.4-0.9,0.6-1.4,0.6s-0.8-0.2-1.1-0.4C106.2,9,106,8.7,106,8.2
		C106,7.7,106.2,7.2,106.6,6.8z"/>
	<path class="st0" d="M120.8,20c-0.5,1.1-1.4,1.9-2.2,2.4c-1,0.6-2.2,0.7-3.1,0.7c-1.4,0-2.8-0.3-3.9-1.4c-0.6-0.6-1.2-1.7-1.2-3.4
		c0-1.8,0.6-3.6,1.8-4.7c1.3-1.3,2.9-1.5,4.2-1.5c1.2,0,2.5,0.2,3.6,1.2c1.1,1.1,1.3,2.5,1.3,3.8c0,0.4,0,0.7,0,1.1h-7.8
		c-0.1,1,0.2,1.7,0.6,2.1c0.5,0.6,1.2,0.6,1.7,0.6c0.4,0,1,0,1.6-0.3c0.4-0.3,0.8-0.7,1-1.1L120.8,20z M118.6,16.2
		c0-0.6-0.3-1.2-0.6-1.5c-0.4-0.4-1-0.6-1.6-0.6c-0.8,0-1.4,0.3-1.8,0.7c-0.4,0.3-0.7,0.8-0.9,1.4H118.6z"/>
	<path class="st0" d="M124.1,12.4h2.9l-0.2,1.5c0.3-0.5,0.7-1,1.3-1.4c0.6-0.4,1.2-0.5,1.8-0.5c0.5,0,0.9,0.1,1.4,0.2l-0.9,2.6
		c-0.3-0.2-0.7-0.3-1.1-0.3c-0.8,0-1.4,0.3-1.8,0.7c-0.6,0.6-1.1,1.9-1.2,3l-0.6,4.4h-2.9L124.1,12.4z"/>
</g>
<path class="st1" d="M18.3,4c6.6,0,12,5.4,12,12c-0.6,15.9-23.4,15.9-24,0C6.3,9.4,11.7,4,18.3,4z"/>
<g>
	<path class="st2" d="M29,4c6.6,0,12,5.4,12,12c-0.6,15.9-23.4,15.9-24,0C17,9.4,22.4,4,29,4z"/>
</g>
</svg>
